<svg width="2112" height="1072" xmlns="http://www.w3.org/2000/svg">
 <!-- Created with Method Draw - http://github.com/duopixel/Method-Draw/ -->

 <g>
  <title>background</title>
  <rect x="-1" y="-1" width="2114" height="1074" id="canvas_background" fill="#fff"/>
 </g>
 <g>
  <title>Layer 1</title>
  <ellipse stroke="#004793" ry="106.000001" rx="128.5" id="svg_1" cy="234.999999" cx="130.5" stroke-width="2" fill="none"/>
  <ellipse stroke="#007bff" ry="106.000001" rx="128.5" id="svg_4" cy="190.818557" cx="130.5" stroke-width="2" fill="none"/>
  <ellipse stroke="#0052aa" ry="106.000001" rx="128.5" id="svg_6" cy="190.716819" cx="130.5" stroke-width="2" fill="none"/>
  <ellipse stroke="#006cd8" ry="106.000001" rx="128.5" id="svg_7" cy="146.535376" cx="130.5" stroke-width="2" fill="none"/>
  <ellipse stroke="#007fff" ry="106.000001" rx="128.5" id="svg_8" cy="108.522219" cx="130.5" stroke-width="2" fill="none"/>
  <ellipse stroke="#004793" ry="106.000001" rx="128.5" id="svg_9" cy="235.999999" cx="427.5" stroke-width="2" fill="none"/>
  <ellipse stroke="#007bff" ry="106.000001" rx="128.5" id="svg_10" cy="191.818557" cx="427.5" stroke-width="2" fill="none"/>
  <ellipse stroke="#0052aa" ry="106.000001" rx="128.5" id="svg_11" cy="191.716819" cx="427.5" stroke-width="2" fill="none"/>
  <ellipse stroke="#006cd8" ry="106.000001" rx="128.5" id="svg_12" cy="147.535376" cx="427.5" stroke-width="2" fill="none"/>
  <ellipse stroke="#007fff" ry="106.000001" rx="128.5" id="svg_13" cy="109.522219" cx="427.5" stroke-width="2" fill="none"/>
  <ellipse stroke="#004793" ry="106.000001" rx="128.5" id="svg_14" cy="234.999999" cx="726.664429" stroke-width="2" fill="none"/>
  <ellipse stroke="#007bff" ry="106.000001" rx="128.5" id="svg_15" cy="190.818557" cx="726.664429" stroke-width="2" fill="none"/>
  <ellipse stroke="#0052aa" ry="106.000001" rx="128.5" id="svg_16" cy="190.716819" cx="726.664429" stroke-width="2" fill="none"/>
  <ellipse stroke="#006cd8" ry="106.000001" rx="128.5" id="svg_17" cy="146.535376" cx="726.664429" stroke-width="2" fill="none"/>
  <ellipse stroke="#007fff" ry="106.000001" rx="128.5" id="svg_18" cy="108.522219" cx="726.664429" stroke-width="2" fill="none"/>
  <ellipse stroke="#004793" ry="106.000001" rx="128.5" id="svg_19" cy="587.11505" cx="130.5" stroke-width="2" fill="none"/>
  <ellipse stroke="#007bff" ry="106.000001" rx="128.5" id="svg_20" cy="542.933608" cx="130.5" stroke-width="2" fill="none"/>
  <ellipse stroke="#0052aa" ry="106.000001" rx="128.5" id="svg_21" cy="542.83187" cx="130.5" stroke-width="2" fill="none"/>
  <ellipse stroke="#006cd8" ry="106.000001" rx="128.5" id="svg_22" cy="498.650427" cx="130.5" stroke-width="2" fill="none"/>
  <ellipse stroke="#007fff" ry="106.000001" rx="128.5" id="svg_23" cy="460.63727" cx="130.5" stroke-width="2" fill="none"/>
  <ellipse stroke="#004793" ry="106.000001" rx="128.5" id="svg_24" cy="588.11505" cx="427.5" stroke-width="2" fill="none"/>
  <ellipse stroke="#007bff" ry="106.000001" rx="128.5" id="svg_25" cy="543.933608" cx="427.5" stroke-width="2" fill="none"/>
  <ellipse stroke="#0052aa" ry="106.000001" rx="128.5" id="svg_26" cy="543.83187" cx="427.5" stroke-width="2" fill="none"/>
  <ellipse stroke="#006cd8" ry="106.000001" rx="128.5" id="svg_27" cy="499.650427" cx="427.5" stroke-width="2" fill="none"/>
  <ellipse stroke="#007fff" ry="106.000001" rx="128.5" id="svg_28" cy="461.63727" cx="427.5" stroke-width="2" fill="none"/>
  <ellipse stroke="#004793" ry="106.000001" rx="128.5" id="svg_29" cy="587.11505" cx="726.664429" stroke-width="2" fill="none"/>
  <ellipse stroke="#007bff" ry="106.000001" rx="128.5" id="svg_30" cy="542.933608" cx="726.664429" stroke-width="2" fill="none"/>
  <ellipse stroke="#0052aa" ry="106.000001" rx="128.5" id="svg_31" cy="542.83187" cx="726.664429" stroke-width="2" fill="none"/>
  <ellipse stroke="#006cd8" ry="106.000001" rx="128.5" id="svg_32" cy="498.650427" cx="726.664429" stroke-width="2" fill="none"/>
  <ellipse stroke="#007fff" ry="106.000001" rx="128.5" id="svg_33" cy="460.63727" cx="726.664429" stroke-width="2" fill="none"/>
  <ellipse stroke="#004793" ry="106.000001" rx="128.5" id="svg_34" cy="234.999999" cx="130.5" stroke-width="2" fill="none"/>
  <ellipse stroke="#007bff" ry="106.000001" rx="128.5" id="svg_35" cy="190.818557" cx="130.5" stroke-width="2" fill="none"/>
  <ellipse stroke="#0052aa" ry="106.000001" rx="128.5" id="svg_36" cy="190.716819" cx="130.5" stroke-width="2" fill="none"/>
  <ellipse stroke="#006cd8" ry="106.000001" rx="128.5" id="svg_37" cy="146.535376" cx="130.5" stroke-width="2" fill="none"/>
  <ellipse stroke="#007fff" ry="106.000001" rx="128.5" id="svg_38" cy="108.522219" cx="130.5" stroke-width="2" fill="none"/>
  <ellipse stroke="#004793" ry="106.000001" rx="128.5" id="svg_39" cy="235.999999" cx="427.5" stroke-width="2" fill="none"/>
  <ellipse stroke="#007bff" ry="106.000001" rx="128.5" id="svg_40" cy="191.818557" cx="427.5" stroke-width="2" fill="none"/>
  <ellipse stroke="#0052aa" ry="106.000001" rx="128.5" id="svg_41" cy="191.716819" cx="427.5" stroke-width="2" fill="none"/>
  <ellipse stroke="#006cd8" ry="106.000001" rx="128.5" id="svg_42" cy="147.535376" cx="427.5" stroke-width="2" fill="none"/>
  <ellipse stroke="#007fff" ry="106.000001" rx="128.5" id="svg_43" cy="109.522219" cx="427.5" stroke-width="2" fill="none"/>
  <ellipse stroke="#004793" ry="106.000001" rx="128.5" id="svg_44" cy="234.999999" cx="726.664429" stroke-width="2" fill="none"/>
  <ellipse stroke="#007bff" ry="106.000001" rx="128.5" id="svg_45" cy="190.818557" cx="726.664429" stroke-width="2" fill="none"/>
  <ellipse stroke="#0052aa" ry="106.000001" rx="128.5" id="svg_46" cy="190.716819" cx="726.664429" stroke-width="2" fill="none"/>
  <ellipse stroke="#006cd8" ry="106.000001" rx="128.5" id="svg_47" cy="146.535376" cx="726.664429" stroke-width="2" fill="none"/>
  <ellipse stroke="#007fff" ry="106.000001" rx="128.5" id="svg_48" cy="108.522219" cx="726.664429" stroke-width="2" fill="none"/>
  <ellipse stroke="#004793" ry="106.000001" rx="128.5" id="svg_49" cy="942.97177" cx="130.5" stroke-width="2" fill="none"/>
  <ellipse stroke="#007bff" ry="106.000001" rx="128.5" id="svg_50" cy="898.790328" cx="130.5" stroke-width="2" fill="none"/>
  <ellipse stroke="#0052aa" ry="106.000001" rx="128.5" id="svg_51" cy="898.68859" cx="130.5" stroke-width="2" fill="none"/>
  <ellipse stroke="#006cd8" ry="106.000001" rx="128.5" id="svg_52" cy="854.507147" cx="130.5" stroke-width="2" fill="none"/>
  <ellipse stroke="#007fff" ry="106.000001" rx="128.5" id="svg_53" cy="816.49399" cx="130.5" stroke-width="2" fill="none"/>
  <ellipse stroke="#004793" ry="106.000001" rx="128.5" id="svg_54" cy="943.97177" cx="427.5" stroke-width="2" fill="none"/>
  <ellipse stroke="#007bff" ry="106.000001" rx="128.5" id="svg_55" cy="899.790328" cx="427.5" stroke-width="2" fill="none"/>
  <ellipse stroke="#0052aa" ry="106.000001" rx="128.5" id="svg_56" cy="899.68859" cx="427.5" stroke-width="2" fill="none"/>
  <ellipse stroke="#006cd8" ry="106.000001" rx="128.5" id="svg_57" cy="855.507147" cx="427.5" stroke-width="2" fill="none"/>
  <ellipse stroke="#007fff" ry="106.000001" rx="128.5" id="svg_58" cy="817.49399" cx="427.5" stroke-width="2" fill="none"/>
  <ellipse stroke="#004793" ry="106.000001" rx="128.5" id="svg_59" cy="942.97177" cx="726.664429" stroke-width="2" fill="none"/>
  <ellipse stroke="#007bff" ry="106.000001" rx="128.5" id="svg_60" cy="898.790328" cx="726.664429" stroke-width="2" fill="none"/>
  <ellipse stroke="#0052aa" ry="106.000001" rx="128.5" id="svg_61" cy="898.68859" cx="726.664429" stroke-width="2" fill="none"/>
  <ellipse stroke="#006cd8" ry="106.000001" rx="128.5" id="svg_62" cy="854.507147" cx="726.664429" stroke-width="2" fill="none"/>
  <ellipse stroke="#007fff" ry="106.000001" rx="128.5" id="svg_63" cy="816.49399" cx="726.664429" stroke-width="2" fill="none"/>
  <!-- Created with Method Draw - http://github.com/duopixel/Method-Draw/ -->
  <path fill="none" stroke="#006cd8" stroke-width="2" stroke-opacity="null" fill-opacity="null" d="m1224.267692,498.53384l-37.086753,-21.42343l0,23.83797l-66.557483,0c-11.653767,0.870784 -31.774374,-12.350468 -54.14564,-29.894083c-22.527605,-16.64136 -48.273345,-37.059212 -82.745533,-37.605474l-23.19257,0l0,38.001084l23.19257,0c16.88277,-0.490819 37.700301,12.785918 59.863693,29.918245c8.261275,5.984939 16.593829,12.587716 25.423188,18.549171c-8.829358,5.969283 -17.152008,12.579962 -25.423188,18.565028c-22.163381,17.084638 -42.980922,30.393005 -59.841882,29.909993l-23.21437,0l0,38.056516l23.202453,0c34.398949,-0.482641 60.154646,-20.95582 82.755458,-37.573504c22.373278,-17.543943 42.484044,-30.772907 54.147652,-29.917927l66.535672,0l0,23.837748l37.086753,-21.399331l37.108437,-21.415083l-37.108437,-21.446914l-0.000021,-0.000011l0.000001,0.000002z" id="svg_94"/>
  <g id="svg_100" stroke="null">
   <ellipse ry="331.199054" rx="401.500736" id="svg_95" cy="738.039532" cx="1710.479256" stroke-width="2" fill="none" stroke="#004793"/>
   <ellipse ry="331.199054" rx="401.500736" id="svg_96" cy="599.993761" cx="1710.479256" stroke-width="2" fill="none" stroke="#007bff"/>
   <ellipse ry="331.199054" rx="401.500736" id="svg_97" cy="599.675879" cx="1710.479256" stroke-width="2" fill="none" stroke="#0052aa"/>
   <ellipse ry="331.199054" rx="401.500736" id="svg_98" cy="461.630105" cx="1710.479256" stroke-width="2" fill="none" stroke="#006cd8"/>
   <ellipse ry="331.199054" rx="401.500736" id="svg_99" cy="342.857261" cx="1710.479256" stroke-width="2" fill="none" stroke="#007fff"/>
  </g>
 </g>
</svg>