<?xml version="1.0" standalone="no"?>
<!DOCTYPE svg PUBLIC "-//W3C//DTD SVG 20010904//EN"
 "http://www.w3.org/TR/2001/REC-SVG-20010904/DTD/svg10.dtd">
<svg version="1.0" xmlns="http://www.w3.org/2000/svg"
 width="700.000000pt" height="700.000000pt" viewBox="0 0 700.000000 700.000000"
 preserveAspectRatio="xMidYMid meet">
<metadata>
Created by potrace 1.11, written by Peter Selinger 2001-2013
</metadata>
<g transform="translate(0.000000,700.000000) scale(0.100000,-0.100000)"
fill="#000000" stroke="none">
<path d="M3075 6991 c-28 -12 -76 -61 -86 -89 -15 -40 -10 -105 11 -140 25
-41 76 -72 118 -72 33 0 34 -2 104 -147 100 -210 128 -272 128 -285 0 -6 -8
-20 -17 -30 -26 -29 -24 -128 3 -164 37 -50 68 -66 127 -68 42 -1 62 4 84 20
72 53 91 130 53 210 l-21 41 98 208 98 208 40 4 c114 12 176 135 117 237 -22
39 -92 75 -136 71 -122 -11 -188 -140 -122 -238 l24 -35 -72 -159 c-121 -264
-119 -261 -162 -261 l-36 0 -53 112 c-152 321 -146 306 -128 324 21 22 43 75
43 108 0 40 -38 109 -71 128 -34 20 -115 30 -144 17z"/>
<path d="M2295 6825 c-89 -30 -143 -136 -116 -225 12 -41 69 -105 102 -115 10
-4 17 -9 15 -13 -2 -4 -7 -47 -10 -97 -4 -49 -9 -108 -11 -130 -2 -22 -9 -94
-15 -160 -5 -66 -13 -151 -17 -190 -3 -38 -6 -76 -6 -84 0 -7 -19 -21 -42 -31
-36 -15 -104 -78 -106 -98 0 -4 -3 -16 -5 -27 -34 -141 100 -263 238 -216 47
16 105 80 114 126 15 84 -23 171 -91 204 l-27 13 6 82 c4 44 9 99 11 121 2 22
7 76 10 120 4 44 8 98 11 120 2 22 7 74 10 115 4 41 8 84 9 95 1 11 3 26 4 34
0 8 4 12 7 8 4 -3 20 1 36 9 30 15 31 15 66 -18 20 -18 39 -35 42 -38 5 -6
251 -236 367 -345 l61 -57 -12 -37 c-25 -74 3 -156 71 -204 126 -90 301 19
279 175 -16 113 -139 186 -241 144 -42 -18 -39 -19 -105 44 -14 14 -57 54 -96
90 -338 317 -343 323 -333 342 6 11 10 45 10 75 0 46 -5 64 -28 96 -48 69
-132 97 -208 72z"/>
<path d="M4481 6828 c-84 -23 -137 -102 -128 -191 2 -29 7 -59 11 -67 5 -11
-62 -84 -234 -255 -132 -132 -242 -241 -243 -242 -2 -1 -21 4 -43 12 -61 21
-126 6 -180 -42 -64 -56 -73 -172 -17 -240 112 -140 336 -54 319 122 -2 28 -7
59 -11 70 -5 16 40 65 234 259 l240 240 40 -13 c23 -6 41 -17 42 -24 0 -7 2
-19 4 -28 3 -16 12 -94 20 -168 2 -24 7 -60 10 -80 3 -20 7 -56 10 -81 3 -25
7 -61 10 -80 28 -225 28 -233 12 -244 -8 -6 -25 -18 -36 -26 -37 -25 -63 -81
-65 -135 -1 -68 28 -122 86 -158 85 -53 184 -32 243 52 25 36 30 52 29 101 -1
78 -33 128 -105 164 -29 14 -54 32 -55 39 -1 8 -5 40 -8 73 -4 32 -8 70 -11
84 -4 26 -10 77 -20 165 -3 28 -10 82 -15 121 -10 73 -21 175 -24 206 0 9 15
27 34 40 43 28 80 99 80 150 0 120 -113 207 -229 176z"/>
<path d="M1640 6578 c-73 -50 -94 -117 -62 -191 19 -43 66 -87 94 -87 7 0 18
-4 24 -8 9 -5 58 -211 100 -424 4 -22 -1 -33 -23 -52 l-28 -25 -175 92 c-96
50 -189 97 -205 105 -27 13 -31 20 -32 60 -2 53 -40 108 -93 133 -93 45 -215
-33 -214 -136 0 -30 17 -83 32 -101 51 -60 140 -76 205 -35 l36 22 133 -71
c73 -39 166 -87 206 -108 63 -32 72 -40 72 -64 0 -99 108 -174 204 -141 106
36 139 163 65 248 -16 18 -44 39 -62 44 l-32 11 -34 163 c-18 89 -35 171 -37
182 -24 111 -25 108 12 144 73 73 52 201 -40 245 -49 23 -107 20 -146 -6z"/>
<path d="M5100 6558 c-45 -31 -69 -66 -74 -108 -7 -55 11 -105 49 -139 31 -27
35 -35 30 -63 -38 -215 -75 -422 -77 -423 -2 -1 -22 -12 -44 -25 -24 -13 -51
-39 -63 -60 -60 -107 26 -240 148 -228 78 8 128 57 138 136 l5 47 186 105
c102 58 194 108 203 112 10 4 34 -2 55 -13 95 -48 204 5 221 105 20 123 -91
218 -204 175 -60 -22 -107 -94 -101 -153 3 -27 -5 -33 -196 -142 l-198 -114
-35 21 c-22 14 -32 27 -29 38 3 9 7 30 10 46 9 54 45 259 50 282 2 11 8 41 11
65 7 40 11 45 58 68 151 74 99 290 -69 290 -26 0 -53 -8 -74 -22z"/>
<path d="M6072 5692 c-57 -17 -120 -91 -124 -148 -2 -16 -11 -30 -23 -35 -29
-13 -620 -169 -639 -169 -8 0 -20 9 -26 20 -6 11 -31 31 -56 46 -135 79 -304
-52 -262 -204 35 -128 179 -176 286 -96 36 28 57 64 67 115 l6 35 182 47 c100
26 249 65 331 87 l150 40 27 -33 c15 -17 26 -34 24 -37 -1 -3 -42 -97 -90
-210 -48 -113 -95 -223 -105 -245 -10 -22 -30 -70 -45 -106 -25 -58 -31 -66
-54 -65 -14 1 -44 -4 -66 -12 -150 -49 -165 -262 -23 -331 147 -71 300 60 253
215 -7 25 -24 55 -38 68 l-25 23 137 318 136 319 45 3 c90 7 159 75 165 164 4
62 -13 111 -52 147 -50 46 -117 62 -181 44z"/>
<path d="M725 5624 c-78 -26 -131 -114 -119 -194 15 -94 86 -154 183 -155 l55
0 173 -289 c95 -158 173 -292 173 -297 0 -6 -9 -23 -21 -38 -25 -34 -32 -108
-16 -156 46 -132 228 -163 310 -53 52 70 55 147 9 213 -38 55 -84 79 -151 80
l-56 1 -52 85 c-29 46 -60 98 -69 114 -10 17 -64 108 -121 203 -56 96 -103
177 -103 182 0 5 8 22 18 39 16 31 19 31 72 26 30 -3 66 -7 80 -10 14 -2 48
-7 75 -10 28 -3 84 -10 125 -15 41 -5 102 -12 134 -16 33 -3 67 -7 75 -9 9 -1
40 -6 69 -10 l52 -7 0 -37 c0 -51 47 -122 96 -146 122 -58 264 26 264 156 0
62 -11 90 -54 133 -67 67 -162 71 -242 10 -35 -27 -51 -33 -77 -30 -17 2 -106
14 -197 25 -91 12 -178 23 -195 26 -16 2 -59 7 -95 11 -36 4 -72 8 -80 10 -8
1 -27 3 -42 3 -21 1 -29 8 -38 36 -33 101 -136 153 -235 119z"/>
<path d="M2834 5320 c-106 -23 -168 -136 -134 -242 17 -48 78 -103 126 -112
37 -8 35 -2 59 -136 8 -47 17 -98 20 -115 81 -442 82 -445 67 -445 -5 0 -18
-9 -30 -21 l-23 -20 -62 34 c-34 19 -138 74 -231 122 -94 49 -202 105 -240
126 l-71 38 -5 53 c-13 122 -99 191 -215 174 -65 -10 -131 -74 -140 -138 -14
-95 17 -163 92 -202 58 -30 127 -25 182 12 l43 29 126 -67 c70 -36 195 -102
277 -145 221 -115 204 -102 203 -151 0 -23 8 -59 18 -80 62 -125 234 -139 311
-25 68 100 18 241 -97 275 l-45 13 -12 69 c-13 79 -15 91 -49 274 -13 74 -26
142 -29 150 -2 8 -6 31 -9 50 -3 19 -9 56 -14 81 -9 45 -8 46 28 77 121 102
78 286 -75 320 -22 4 -54 5 -71 2z"/>
<path d="M3988 5316 c-59 -21 -86 -43 -109 -88 -42 -82 -8 -206 66 -240 24
-11 24 -2 0 -128 -3 -14 -23 -124 -45 -245 -22 -121 -42 -231 -45 -245 -15
-77 -15 -78 -51 -84 -42 -8 -102 -59 -120 -103 -33 -77 -4 -178 63 -223 30
-21 49 -25 104 -25 60 0 71 3 106 31 47 38 65 74 71 141 l4 53 102 51 c55 28
106 55 111 59 6 4 91 49 190 100 99 51 185 96 191 101 7 6 16 3 24 -7 8 -8 26
-22 41 -29 98 -51 214 -6 255 100 42 110 -40 233 -160 240 -103 7 -185 -70
-190 -177 l-3 -51 -74 -39 c-41 -21 -148 -78 -239 -125 -91 -47 -193 -101
-228 -121 l-63 -34 -27 23 c-34 31 -42 41 -36 51 3 4 7 20 9 35 2 16 13 78 24
138 11 61 23 124 26 140 3 17 17 95 31 175 14 80 29 151 33 159 4 8 17 16 30
18 76 11 135 85 138 172 1 61 -11 92 -54 135 -48 48 -113 64 -175 42z"/>
<path d="M315 5026 c-128 -77 -74 -281 73 -281 26 0 58 4 72 8 26 7 28 6 130
-87 19 -17 80 -72 135 -121 55 -49 103 -93 106 -98 11 -16 -18 -72 -38 -73
-10 -1 -70 -4 -133 -8 -63 -3 -160 -9 -215 -12 l-100 -6 -11 29 c-6 17 -28 43
-49 59 -72 55 -180 33 -224 -46 -27 -49 -26 -105 2 -154 58 -102 208 -100 269
5 14 23 22 26 84 28 38 2 87 4 109 6 22 2 99 6 171 10 l132 6 21 -29 c61 -87
207 -76 256 18 61 118 -29 244 -161 226 -44 -6 -45 -5 -142 82 -53 47 -99 89
-102 92 -3 3 -40 36 -83 74 l-77 69 6 48 c18 132 -118 223 -231 155z"/>
<path d="M6577 5017 c-81 -20 -131 -109 -108 -195 9 -37 9 -48 -1 -57 -7 -7
-84 -74 -171 -149 -134 -116 -162 -136 -180 -129 -42 15 -105 7 -141 -17 -89
-62 -87 -196 4 -257 59 -41 157 -25 203 33 10 14 22 22 25 20 4 -2 27 -7 52
-10 25 -3 79 -12 120 -20 42 -8 98 -18 125 -21 28 -4 57 -8 65 -10 8 -2 30 -7
49 -10 44 -8 51 -12 51 -35 0 -24 44 -77 81 -95 95 -50 219 26 219 133 0 91
-59 156 -144 161 -53 2 -93 -16 -129 -58 l-25 -30 -223 37 -223 38 -13 31 c-7
18 -10 38 -7 45 3 7 53 53 110 102 127 108 160 137 198 169 25 22 37 25 84 22
93 -6 158 46 168 131 13 113 -80 198 -189 171z"/>
<path d="M5803 4135 c-83 -36 -124 -121 -102 -211 20 -79 93 -134 179 -134 46
0 114 31 132 60 7 11 17 20 21 20 9 0 226 -96 472 -208 l130 -59 0 -42 0 -42
-85 -45 c-47 -25 -137 -72 -200 -106 -63 -33 -161 -85 -217 -115 l-101 -53
-37 25 c-157 106 -348 -59 -265 -230 45 -93 156 -127 248 -75 55 31 85 81 90
150 4 57 5 58 51 82 89 46 326 171 376 198 166 90 176 94 193 82 101 -71 213
-59 277 31 26 36 30 50 29 104 -1 93 -46 150 -137 175 -55 14 -110 1 -156 -38
l-30 -25 -43 20 c-54 24 -456 205 -520 233 -42 19 -47 25 -53 62 -19 119 -143
189 -252 141z"/>
<path d="M1029 4112 c-64 -31 -99 -88 -99 -158 0 -48 -1 -50 -42 -71 -24 -13
-128 -68 -233 -123 -104 -55 -222 -117 -260 -137 l-71 -36 -40 27 c-126 83
-288 -9 -280 -160 4 -61 28 -106 76 -139 67 -46 157 -41 219 11 l30 25 93 -41
c51 -23 111 -50 133 -60 22 -10 74 -34 115 -52 41 -19 123 -56 182 -82 94 -42
106 -51 102 -69 -13 -64 47 -158 118 -183 144 -53 283 84 233 229 -41 120
-189 161 -285 80 l-31 -26 -77 33 c-42 19 -123 55 -180 82 -57 26 -105 48
-107 48 -1 0 -45 20 -96 44 -52 24 -110 50 -129 59 -33 13 -36 17 -35 56 0 40
2 44 50 70 55 30 204 109 417 220 l138 72 35 -27 c86 -66 220 -30 266 70 73
161 -86 317 -242 238z"/>
<path d="M1615 3613 c-46 -24 -66 -45 -86 -88 -24 -51 -24 -99 0 -150 25 -55
62 -86 118 -100 81 -21 168 16 204 86 l20 40 117 -6 c64 -3 162 -7 217 -10 55
-3 174 -7 265 -10 155 -6 209 -10 215 -17 1 -2 7 -19 14 -38 l12 -35 -277
-273 c-229 -225 -281 -272 -298 -267 -90 28 -146 20 -200 -28 -96 -83 -75
-247 37 -298 151 -68 306 69 251 223 l-13 36 276 269 c151 147 281 268 287
268 6 -1 32 -4 58 -9 66 -11 112 0 155 37 81 72 86 186 11 264 -79 82 -214 70
-278 -24 l-24 -35 -136 6 c-74 3 -200 9 -280 12 -80 3 -176 7 -215 9 -38 2
-96 4 -127 4 -56 1 -58 2 -77 39 -23 45 -66 87 -104 101 -41 16 -107 13 -142
-6z"/>
<path d="M5135 3617 c-41 -19 -82 -63 -96 -102 -7 -19 -19 -33 -28 -33 -9 1
-90 -2 -181 -6 -91 -3 -226 -9 -300 -12 -74 -3 -177 -7 -229 -9 l-95 -4 -37
43 c-138 157 -390 -7 -298 -194 47 -96 153 -131 249 -81 l35 18 282 -280 281
-279 -13 -32 c-31 -77 9 -181 85 -221 86 -45 201 -10 245 75 77 148 -72 317
-224 254 l-35 -15 -106 105 c-58 58 -186 185 -286 283 -172 169 -181 180 -176
211 l4 32 67 1 c36 1 84 2 106 4 22 1 119 5 215 9 96 4 232 9 301 12 l126 5
26 -43 c60 -103 204 -121 284 -35 76 80 66 205 -21 272 -43 33 -133 44 -181
22z"/>
<path d="M3416 3067 c-24 -6 -53 -25 -77 -49 -68 -70 -72 -166 -9 -245 12 -16
17 -30 11 -37 -8 -10 -54 -97 -242 -461 l-67 -130 -39 -1 c-55 -1 -106 -20
-136 -52 -72 -75 -71 -185 3 -259 81 -82 220 -63 278 37 39 68 34 141 -14 206
-12 17 -19 35 -15 40 5 5 59 108 122 229 62 121 130 254 152 295 l39 75 41 -3
42 -4 141 -310 140 -311 -31 -47 c-117 -173 86 -368 258 -248 54 38 83 131 62
199 -11 37 -53 87 -87 105 -18 9 -52 18 -77 19 l-46 3 -142 312 -142 311 31
44 c101 144 -24 324 -196 282z"/>
<path d="M95 2937 c-95 -54 -102 -193 -13 -260 14 -11 49 -22 76 -25 58 -5
101 14 134 59 22 30 25 30 78 24 30 -4 61 -8 70 -10 27 -5 94 -14 140 -20 129
-15 184 -25 191 -33 4 -4 10 -21 13 -38 7 -32 0 -40 -273 -291 l-55 -50 -40
12 c-63 19 -127 -3 -167 -58 -28 -38 -30 -48 -27 -100 4 -49 9 -62 38 -92 55
-56 127 -66 195 -27 54 32 87 120 65 177 -8 21 4 35 113 137 67 62 144 133
170 158 27 25 52 45 55 44 4 0 24 -4 44 -8 110 -24 210 90 173 198 -41 118
-177 145 -264 53 -16 -18 -31 -25 -50 -22 -82 10 -199 27 -217 30 -12 2 -48 7
-80 11 -33 3 -66 8 -74 10 -8 1 -25 3 -36 3 -16 1 -29 15 -45 48 -42 83 -136
114 -214 70z"/>
<path d="M6713 2910 c-36 -12 -86 -60 -93 -92 -6 -25 0 -24 -176 -33 -76 -4
-151 -8 -166 -10 -108 -13 -122 -11 -165 32 -32 32 -52 43 -88 48 -157 24
-245 -167 -125 -269 38 -32 69 -40 121 -33 30 4 45 1 57 -12 10 -9 50 -52 91
-96 41 -44 106 -113 143 -153 58 -61 68 -76 61 -95 -15 -42 -9 -114 13 -143
50 -68 115 -88 189 -59 34 12 51 27 70 59 73 124 -22 255 -167 232 -46 -7 -22
-27 -208 174 -52 57 -106 113 -119 126 -23 21 -23 24 -9 60 17 42 6 39 178 48
52 3 141 8 196 12 l101 7 18 -31 c10 -16 35 -40 55 -51 106 -59 231 19 226
141 -4 102 -103 168 -203 138z"/>
<path d="M1246 2658 c-76 -16 -133 -80 -140 -158 -4 -54 17 -118 48 -145 l23
-20 -29 -70 c-16 -38 -38 -88 -47 -110 -10 -22 -58 -133 -106 -247 -82 -195
-89 -208 -114 -208 -116 0 -204 -101 -186 -216 17 -116 158 -185 264 -129 40
20 91 90 91 124 0 28 9 45 25 48 6 1 80 20 165 43 85 22 162 43 170 45 74 18
224 58 260 69 l44 13 38 -38 c96 -97 259 -62 302 66 38 108 -45 235 -155 237
-76 2 -85 -1 -128 -39 -30 -27 -48 -54 -61 -92 l-18 -55 -327 -87 -327 -87
-28 31 -27 31 24 60 c14 34 35 84 47 111 13 28 62 143 111 258 l88 207 36 0
c19 0 54 10 78 21 127 62 132 252 8 317 -45 23 -85 29 -129 20z"/>
<path d="M5617 2645 c-166 -58 -155 -300 14 -345 22 -6 54 -9 72 -6 l32 5 177
-297 c177 -296 177 -297 157 -318 -10 -11 -19 -26 -19 -32 0 -13 -16 -12 -200
13 -62 8 -105 13 -173 21 -32 3 -66 7 -75 9 -9 2 -46 6 -82 10 -36 4 -72 9
-80 11 -8 1 -25 3 -37 3 -19 1 -23 7 -23 33 0 87 -81 171 -169 174 -79 3 -137
-30 -172 -98 -58 -114 19 -253 144 -262 52 -4 143 31 153 59 7 16 21 16 139 1
17 -2 93 -12 170 -21 77 -9 151 -18 165 -20 14 -2 52 -7 85 -11 33 -4 65 -8
70 -9 6 -1 22 -3 36 -3 21 -2 29 -10 43 -45 43 -114 174 -157 270 -89 156 109
68 347 -122 330 l-35 -3 -174 290 c-95 159 -173 295 -173 301 0 6 7 17 15 24
22 19 38 88 30 138 -7 48 -60 117 -105 134 -41 16 -93 18 -133 3z"/>
<path d="M2270 1617 c-55 -30 -69 -43 -91 -80 -27 -48 -29 -120 -6 -168 25
-54 82 -99 126 -99 12 0 21 -1 21 -3 0 -2 6 -52 14 -113 8 -60 18 -137 21
-172 4 -35 8 -71 10 -80 1 -9 6 -46 10 -82 4 -36 8 -72 10 -80 2 -13 17 -144
20 -175 0 -5 -12 -17 -26 -27 -97 -61 -118 -206 -41 -283 40 -40 79 -57 133
-57 112 1 192 97 176 210 -3 20 -8 44 -12 53 -4 12 59 81 235 257 l240 242 53
-14 c66 -17 125 -2 173 45 114 111 33 309 -126 309 -124 0 -210 -124 -170
-245 l12 -36 -240 -240 -240 -240 -40 10 c-43 12 -41 8 -57 136 -16 132 -46
377 -50 415 -3 25 -8 65 -11 90 -11 81 -11 90 -3 90 19 0 74 58 90 95 36 80 3
185 -72 229 -40 24 -126 31 -159 13z"/>
<path d="M4698 1600 c-81 -23 -130 -83 -135 -168 -5 -70 23 -124 81 -162 l38
-25 -7 -85 c-4 -47 -8 -97 -10 -111 -2 -14 -6 -66 -10 -115 -4 -49 -8 -100
-10 -113 -4 -25 -18 -187 -19 -230 -1 -18 -11 -28 -42 -41 l-40 -18 -70 65
c-38 36 -130 123 -204 193 -74 70 -156 146 -181 169 l-47 42 13 42 c38 129
-71 253 -203 232 -178 -28 -206 -271 -39 -345 42 -19 122 -19 141 0 22 22 21
24 241 -183 266 -252 294 -280 288 -290 -14 -24 -20 -80 -12 -118 30 -133 178
-185 288 -102 105 80 89 232 -32 307 -15 9 -26 20 -23 24 2 4 7 45 11 92 3 47
8 101 10 120 2 19 6 72 10 118 3 46 8 91 10 100 2 10 6 65 10 122 7 109 15
130 46 130 31 0 107 83 115 125 16 85 -18 166 -86 203 -41 23 -94 32 -132 22z"/>
<path d="M5045 1526 c-42 -18 -83 -69 -91 -112 -14 -74 40 -165 107 -179 27
-6 30 -12 43 -80 2 -11 9 -40 16 -65 7 -25 14 -54 16 -65 2 -11 16 -73 30
-137 l27 -117 -30 -30 c-85 -84 -52 -216 62 -255 61 -21 135 4 170 58 58 89
14 209 -86 236 l-36 10 -28 127 c-15 70 -38 170 -51 223 l-23 95 31 26 31 26
205 -103 205 -103 2 -39 c5 -89 76 -152 163 -147 137 8 194 178 90 271 -49 45
-112 49 -181 13 l-42 -21 -207 103 c-195 97 -208 105 -208 131 0 99 -124 176
-215 134z"/>
<path d="M1886 1515 c-66 -23 -106 -75 -106 -138 0 -36 20 -23 -325 -218 -89
-50 -88 -49 -105 -35 -42 38 -132 38 -183 0 -92 -68 -77 -219 27 -265 105 -46
215 25 219 142 2 43 -14 31 227 166 25 14 71 41 103 59 65 38 73 40 93 20 7
-8 19 -16 26 -18 10 -4 5 -63 -17 -178 -7 -36 -35 -187 -39 -210 -2 -14 -5
-35 -5 -47 -1 -16 -13 -27 -44 -41 -56 -25 -85 -56 -98 -106 -28 -105 61 -206
169 -192 136 18 183 195 73 277 -16 12 -28 25 -26 29 3 5 25 123 60 325 6 39
13 74 20 105 4 17 20 32 48 45 81 39 107 144 54 222 -36 53 -111 78 -171 58z"/>
<path d="M3513 999 c-105 -22 -155 -134 -102 -228 l21 -37 -49 -105 c-27 -57
-71 -152 -98 -211 l-50 -108 -36 0 c-62 0 -132 -62 -144 -125 -8 -51 6 -95 44
-135 28 -30 46 -40 84 -45 139 -21 232 133 148 245 l-20 28 97 208 97 207 39
1 c37 1 39 -1 66 -59 16 -33 60 -127 98 -208 l70 -149 -24 -35 c-47 -70 -30
-166 39 -215 45 -32 130 -32 175 1 120 85 64 281 -81 281 -32 0 -35 4 -64 67
-17 38 -61 132 -99 211 -67 142 -68 143 -51 171 71 120 -29 268 -160 240z"/>
</g>
</svg>
