<svg width="500" height="500" viewBox="0 0 300 350" xmlns="http://www.w3.org/2000/svg">
 <!-- Created with Method Draw - http://github.com/duopixel/Method-Draw/ -->
 <g>
  <title>database</title>
  <rect fill="#fff" id="canvas_background" height="343" width="262" y="-1" x="-1"/>
 </g>

 <g>
  <title>background</title>
  <rect fill="none" id="canvas_background" height="202" width="202" y="-1" x="-1"/>
  <g display="none" overflow="visible" y="0" x="0" height="100%" width="100%" id="canvasGrid">
   <rect fill="url(#gridpattern)" stroke-width="0" y="0" x="0" height="100%" width="100%"/>
  </g>
 </g>
 <g>
  <title>Layer 1</title>
  <path id="svg_3" d="m374.597253,170.78309l-22.80658,-13.174384l0,14.659211l-40.92967,0c-7.16651,0.53549 -19.539721,-7.594947 -33.29698,-18.383431c-13.8534,-10.23364 -29.685799,-22.789642 -50.884547,-23.125567l-14.262322,0l0,23.368848l14.262322,0c10.382097,-0.30183 23.183883,7.862728 36.813309,18.398289c5.080289,3.680451 10.204412,7.740843 15.634045,11.406853c-5.429633,3.670823 -10.547665,7.736075 -15.634045,11.416604c-13.62942,10.506235 -26.431213,18.690244 -36.799897,18.393215l-14.275728,0l0,23.402937l14.2684,0c21.153709,-0.296801 36.992232,-12.886827 50.890651,-23.105907c13.758497,-10.788685 26.125656,-18.923865 33.298218,-18.398094l40.916258,0l0,14.659074l22.80658,-13.159565l22.819915,-13.169251l-22.819915,-13.188826l-0.000013,-0.000007z" stroke-width="1.5" stroke="#CE7975" fill="#153723"/>
  <path id="svg_4" d="m171.662143,87.458711l-22.938045,-13.250326l0,14.743712l-41.165602,0c-7.20782,0.538577 -19.652354,-7.638727 -33.488914,-18.4894c-13.933256,-10.29263 -29.856917,-22.92101 -51.177861,-23.258871l-14.344535,0l0,23.503555l14.344535,0c10.441942,-0.30357 23.317522,7.908052 37.025513,18.504344c5.109574,3.701667 10.263233,7.785464 15.724165,11.472606c-5.460931,3.691983 -10.608465,7.780668 -15.724165,11.482414c-13.707984,10.566797 -26.58357,18.797982 -37.012023,18.49924l-14.358018,0l0,23.53784l14.350647,0c21.275646,-0.298512 37.205466,-12.961111 51.184,-23.239099c13.837805,-10.850876 26.276253,-19.032949 33.490159,-18.504147l41.152112,0l0,14.743575l22.938045,-13.235421l22.951456,-13.245164l-22.951456,-13.264851l-0.000013,-0.000007z" fill-opacity="null" stroke-width="1.5" stroke="#007bff" fill="none"/>
 </g>
</svg>