<svg id="art" xmlns="http://www.w3.org/2000/svg" viewBox="0 0 84.42 84.17" style="">
    <defs>
        <style>.cls-1,.cls-2{fill:#89be4d;}.cls-1{stroke:#89be4d;}.cls-1,.cls-3,.cls-7{stroke-miterlimit:10;}.cls-3,.cls-4{fill:#e05726;}.cls-3{stroke:#e15627;}.cls-5{fill:#e15627;}.cls-6{fill:#049ec4;}.cls-7{fill:none;stroke:#049ec4;}</style>
    </defs>
    <title>Artboard 1</title>
    
    <g id="red">
        <path class="cls-3 rJVhHYoO_0" d="M36.88,34.74L25.86,28.97"></path>
        <path class="cls-3 rJVhHYoO_1" d="M36.88,34.74L34.64,22.5"></path>
        <path class="cls-4 rJVhHYoO_2" transform="translate(-3.94 36.87) rotate(-53.49)" d="M32.41,22.35A2.2,2.2 0,1,1 36.81,22.35A2.2,2.2 0,1,1 32.41,22.35"></path>
        <path class="cls-4 rJVhHYoO_3" transform="translate(-12.98 43.71) rotate(-53.49)" d="M34.68,34.74A2.2,2.2 0,1,1 39.080000000000005,34.74A2.2,2.2 0,1,1 34.68,34.74"></path>
        <path class="cls-5 rJVhHYoO_4" transform="translate(-12.81 32.34) rotate(-53.49)" d="M23.48,28.88A2.2,2.2 0,1,1 27.88,28.88A2.2,2.2 0,1,1 23.48,28.88"></path>
        <path class="cls-3 rJVhHYoO_5" d="M46.43,34.75L48.68,22.52"></path>
        <path class="cls-3 rJVhHYoO_6" d="M46.43,34.75L57.46,28.99"></path>
        <path class="cls-4 rJVhHYoO_7" transform="translate(11.25 73.71) rotate(-70.68)" d="M55.4,28.92A2.2,2.2 0,1,1 59.800000000000004,28.92A2.2,2.2 0,1,1 55.4,28.92"></path>
        <path class="cls-4 rJVhHYoO_8" transform="translate(-1.73 67.07) rotate(-70.68)" d="M44.23,34.75A2.2,2.2 0,1,1 48.63,34.75A2.2,2.2 0,1,1 44.23,34.75"></path>
        <path class="cls-5 rJVhHYoO_9" transform="translate(11.52 60.91) rotate(-70.68)" d="M46.519999999999996,22.33A2.2,2.2 0,1,1 50.92,22.33A2.2,2.2 0,1,1 46.519999999999996,22.33"></path>
        <path class="cls-3 rJVhHYoO_10" d="M41.81,49.39L46.97,60.72"></path>
        <path class="cls-3 rJVhHYoO_11" d="M41.81,49.39L36.06,60.42"></path>
        <path class="cls-4 rJVhHYoO_12" transform="translate(-14.94 11.88) rotate(-15.57)" d="M33.79,60.57A2.2,2.2 0,1,1 38.190000000000005,60.57A2.2,2.2 0,1,1 33.79,60.57"></path>
        <path class="cls-4 rJVhHYoO_13" transform="translate(-11.72 13.04) rotate(-15.57)" d="M39.61,49.39A2.2,2.2 0,1,1 44.010000000000005,49.39A2.2,2.2 0,1,1 39.61,49.39"></path>
        <path class="cls-5 rJVhHYoO_14" transform="translate(-14.62 14.86) rotate(-15.57)" d="M44.849999999999994,60.89A2.2,2.2 0,1,1 49.25,60.89A2.2,2.2 0,1,1 44.849999999999994,60.89"></path>
        <path class="cls-3 rJVhHYoO_15" d="M48.77,43.24L62.81,42.7"></path>
        <path class="cls-3 rJVhHYoO_16" d="M48.77,43.24L59.04,53.37"></path>
        <path class="cls-4 rJVhHYoO_17" transform="matrix(0.14, -0.99, 0.99, 0.14, -2.31, 104.05)" d="M56.839999999999996,53.37A2.2,2.2 0,1,1 61.24,53.37A2.2,2.2 0,1,1 56.839999999999996,53.37"></path>
        <path class="cls-4 rJVhHYoO_18" transform="translate(-1.52 85.38) rotate(-81.67)" d="M46.44,43.57A2.2,2.2 0,1,1 50.84,43.57A2.2,2.2 0,1,1 46.44,43.57"></path>
        <path class="cls-5 rJVhHYoO_19" transform="translate(11.46 98.66) rotate(-81.67)" d="M60.61,42.7A2.2,2.2 0,1,1 65.01,42.7A2.2,2.2 0,1,1 60.61,42.7"></path>
        <path class="cls-3 rJVhHYoO_20" d="M34.83,43.31L24.77,53.14"></path>
        <path class="cls-3 rJVhHYoO_21" d="M34.83,43.31L20.41,42.7"></path>
        <path class="cls-4 rJVhHYoO_22" transform="translate(-20.31 18.58) rotate(-33.82)" d="M18.21,42.7A2.2,2.2 0,1,1 22.61,42.7A2.2,2.2 0,1,1 18.21,42.7"></path>
        <path class="cls-4 rJVhHYoO_23" transform="translate(-18.37 26.62) rotate(-33.82)" d="M32.41,43.53A2.2,2.2 0,1,1 36.81,43.53A2.2,2.2 0,1,1 32.41,43.53"></path>
        <path class="cls-5 rJVhHYoO_24" transform="translate(-25.38 22.78) rotate(-33.82)" d="M22.57,53.14A2.2,2.2 0,1,1 26.97,53.14A2.2,2.2 0,1,1 22.57,53.14"></path>
    </g>
	<g id="green">
        <path class="cls-1 rJVhHYoO_25" d="M28.37,4.17L37.46,12.67"></path>
        <path class="cls-1 rJVhHYoO_26" d="M28.37,4.17L27.27,16.56"></path>
        <path class="cls-2 rJVhHYoO_27" transform="translate(-4.52 20.32) rotate(-38)" d="M25.05,16.72A2.2,2.2 0,1,1 29.45,16.72A2.2,2.2 0,1,1 25.05,16.72"></path>
        <path class="cls-2 rJVhHYoO_28" transform="translate(3.45 18.35) rotate(-38)" d="M26.17,4.17A2.2,2.2 0,1,1 30.57,4.17A2.2,2.2 0,1,1 26.17,4.17"></path>
        <path class="cls-2 rJVhHYoO_29" transform="translate(0.09 25.86) rotate(-38)" d="M35.4,12.8A2.2,2.2 0,1,1 39.800000000000004,12.8A2.2,2.2 0,1,1 35.4,12.8"></path>
        <path class="cls-1 rJVhHYoO_30" d="M10.53,65.95L15.42,54.52"></path>
        <path class="cls-1 rJVhHYoO_31" d="M10.53,65.95L22.56,62.77"></path>
        <path class="cls-2 rJVhHYoO_32" transform="translate(-42.51 48.66) rotate(-57.93)" d="M20.51,62.73A2.2,2.2 0,1,1 24.91,62.73A2.2,2.2 0,1,1 20.51,62.73"></path>
        <path class="cls-2 rJVhHYoO_33" transform="translate(-50.95 39.85) rotate(-57.93)" d="M8.329999999999998,65.95A2.2,2.2 0,1,1 12.73,65.95A2.2,2.2 0,1,1 8.329999999999998,65.95"></path>
        <path class="cls-2 rJVhHYoO_34" transform="translate(-38.78 38.62) rotate(-57.93)" d="M13.3,54.34A2.2,2.2 0,1,1 17.7,54.34A2.2,2.2 0,1,1 13.3,54.34"></path>
        <path class="cls-1 rJVhHYoO_35" d="M2.21,42.52L13.21,36.73"></path>
        <path class="cls-1 rJVhHYoO_36" d="M2.21,42.52L13.55,47.63"></path>
        <path class="cls-2 rJVhHYoO_37" transform="translate(-14.67 6.98) rotate(-18.84)" d="M11.489999999999998,47.69A2.2,2.2 0,1,1 15.89,47.69A2.2,2.2 0,1,1 11.489999999999998,47.69"></path>
        <path class="cls-2 rJVhHYoO_38" transform="translate(-13.62 2.99) rotate(-18.84)" d="M0.009999999999999787,42.52A2.2,2.2 0,1,1 4.41,42.52A2.2,2.2 0,1,1 0.009999999999999787,42.52"></path>
        <path class="cls-2 rJVhHYoO_39" transform="translate(-11.12 6.29) rotate(-18.84)" d="M11.18,36.64A2.2,2.2 0,1,1 15.580000000000002,36.64A2.2,2.2 0,1,1 11.18,36.64"></path>
        <path class="cls-1 rJVhHYoO_40" d="M9.47,18.58L21.82,20.1"></path>
        <path class="cls-1 rJVhHYoO_41" d="M9.47,18.58L15.87,29.25"></path>
        <path class="cls-2 rJVhHYoO_42" transform="translate(-16.68 36.66) rotate(-74.07)" d="M13.75,29.39A2.2,2.2 0,1,1 18.15,29.39A2.2,2.2 0,1,1 13.75,29.39"></path>
        <path class="cls-2 rJVhHYoO_43" transform="translate(-11 22.59) rotate(-74.07)" d="M7.2700000000000005,18.58A2.2,2.2 0,1,1 11.670000000000002,18.58A2.2,2.2 0,1,1 7.2700000000000005,18.58"></path>
        <path class="cls-2 rJVhHYoO_44" transform="translate(-4.07 35.84) rotate(-74.07)" d="M19.52,20.61A2.2,2.2 0,1,1 23.919999999999998,20.61A2.2,2.2 0,1,1 19.52,20.61"></path>
        <path class="cls-1 rJVhHYoO_45" d="M29.79,79.62L28.29,67.27"></path>
        <path class="cls-1 rJVhHYoO_46" d="M29.79,79.62L38.59,70.84"></path>
        <path class="cls-2 rJVhHYoO_47" transform="translate(-33.3 106.97) rotate(-88.03)" d="M36.51,70.72A2.2,2.2 0,1,1 40.910000000000004,70.72A2.2,2.2 0,1,1 36.51,70.72"></path>
        <path class="cls-2 rJVhHYoO_48" transform="translate(-50.81 106.65) rotate(-88.03)" d="M27.59,79.62A2.2,2.2 0,1,1 31.99,79.62A2.2,2.2 0,1,1 27.59,79.62"></path>
        <path class="cls-2 rJVhHYoO_49" transform="matrix(0.03, -1, 1, 0.03, -39.75, 93.02)" d="M26.060000000000002,67.08A2.2,2.2 0,1,1 30.46,67.08A2.2,2.2 0,1,1 26.060000000000002,67.08"></path>
        <path class="cls-1 rJVhHYoO_50" d="M56.04,79.62L46.96,71.12"></path>
        <path class="cls-1 rJVhHYoO_51" d="M56.04,79.62L57.15,67.23"></path>
        <path class="cls-2 rJVhHYoO_52" transform="translate(-29.17 49.41) rotate(-38)" d="M54.959999999999994,67.07A2.2,2.2 0,1,1 59.36,67.07A2.2,2.2 0,1,1 54.959999999999994,67.07"></path>
        <path class="cls-2 rJVhHYoO_53" transform="translate(-37.14 51.38) rotate(-38)" d="M53.839999999999996,79.62A2.2,2.2 0,1,1 58.24,79.62A2.2,2.2 0,1,1 53.839999999999996,79.62"></path>
        <path class="cls-2 rJVhHYoO_54" transform="translate(-33.78 43.87) rotate(-38)" d="M44.62,70.99A2.2,2.2 0,1,1 49.02,70.99A2.2,2.2 0,1,1 44.62,70.99"></path>
        <path class="cls-1 rJVhHYoO_55" d="M73.89,17.84L68.99,29.28"></path>
        <path class="cls-1 rJVhHYoO_56" d="M73.89,17.84L61.86,21.02"></path>
        <path class="cls-2 rJVhHYoO_57" transform="translate(11.09 62.17) rotate(-57.93)" d="M59.51,21.06A2.2,2.2 0,1,1 63.910000000000004,21.06A2.2,2.2 0,1,1 59.51,21.06"></path>
        <path class="cls-2 rJVhHYoO_58" transform="translate(19.54 70.97) rotate(-57.93)" d="M71.69,17.84A2.2,2.2 0,1,1 76.09,17.84A2.2,2.2 0,1,1 71.69,17.84"></path>
        <path class="cls-2 rJVhHYoO_59" transform="translate(7.36 72.21) rotate(-57.93)" d="M66.72,29.45A2.2,2.2 0,1,1 71.12,29.45A2.2,2.2 0,1,1 66.72,29.45"></path>
        <path class="cls-1 rJVhHYoO_60" d="M82.21,41.28L71.2,47.07"></path>
        <path class="cls-1 rJVhHYoO_61" d="M82.21,41.28L70.87,36.17"></path>
        <path class="cls-2 rJVhHYoO_62" transform="matrix(0.95, -0.32, 0.32, 0.95, -7.87, 24.78)" d="M68.52,36.1A2.2,2.2 0,1,1 72.92,36.1A2.2,2.2 0,1,1 68.52,36.1"></path>
        <path class="cls-2 rJVhHYoO_63" transform="translate(-8.93 28.77) rotate(-18.84)" d="M80.00999999999999,41.28A2.2,2.2 0,1,1 84.41,41.28A2.2,2.2 0,1,1 80.00999999999999,41.28"></path>
        <path class="cls-2 rJVhHYoO_64" transform="translate(-11.42 25.47) rotate(-18.84)" d="M68.83,47.16A2.2,2.2 0,1,1 73.23,47.16A2.2,2.2 0,1,1 68.83,47.16"></path>
        <path class="cls-1 rJVhHYoO_65" d="M74.95,65.21L62.6,63.69"></path>
        <path class="cls-1 rJVhHYoO_66" d="M74.95,65.21L68.54,54.54"></path>
        <path class="cls-2 rJVhHYoO_67" transform="translate(-2.64 105.31) rotate(-74.07)" d="M66.25999999999999,54.41A2.2,2.2 0,1,1 70.66,54.41A2.2,2.2 0,1,1 66.25999999999999,54.41"></path>
        <path class="cls-2 rJVhHYoO_68" transform="translate(-8.33 119.38) rotate(-74.07)" d="M72.75,65.21A2.2,2.2 0,1,1 77.15,65.21A2.2,2.2 0,1,1 72.75,65.21"></path>
        <path class="cls-2 rJVhHYoO_69" transform="translate(-15.26 106.13) rotate(-74.07)" d="M60.5,63.18A2.2,2.2 0,1,1 64.9,63.18A2.2,2.2 0,1,1 60.5,63.18"></path>
        <path class="cls-1 rJVhHYoO_70" d="M54.63,4.17L56.13,16.52"></path>
        <path class="cls-1 rJVhHYoO_71" d="M54.63,4.17L45.82,12.96"></path>
        <path class="cls-2 rJVhHYoO_72" transform="translate(31.07 58.3) rotate(-88.03)" d="M43.51,13.07A2.2,2.2 0,1,1 47.910000000000004,13.07A2.2,2.2 0,1,1 43.51,13.07"></path>
        <path class="cls-2 rJVhHYoO_73" transform="translate(48.58 58.63) rotate(-88.03)" d="M52.43,4.17A2.2,2.2 0,1,1 56.830000000000005,4.17A2.2,2.2 0,1,1 52.43,4.17"></path>
        <path class="cls-2 rJVhHYoO_74" transform="translate(37.52 72.26) rotate(-88.03)" d="M53.949999999999996,16.71A2.2,2.2 0,1,1 58.35,16.71A2.2,2.2 0,1,1 53.949999999999996,16.71"></path>
    </g>
    <g id="blue">
        <path class="cls-6 rJVhHYoO_75" d="M35.9,1.88A1.88,1.88 0,1,1 39.660000000000004,1.88A1.88,1.88 0,1,1 35.9,1.88"></path>
        <path class="cls-6 rJVhHYoO_76" d="M43.97,1.92A1.88,1.88 0,1,1 47.730000000000004,1.92A1.88,1.88 0,1,1 43.97,1.92"></path>
        <path class="cls-6 rJVhHYoO_77" d="M39.919999999999995,10.24A1.88,1.88 0,1,1 43.68,10.24A1.88,1.88 0,1,1 39.919999999999995,10.24"></path>
        <path class="cls-7 rJVhHYoO_78" d="M37.78,2.05L41.8,10.55"></path>
        <path class="cls-7 rJVhHYoO_79" d="M45.85,1.92L41.8,10.55"></path>
        <path class="cls-6 rJVhHYoO_80" transform="translate(20.67 53.83) rotate(-54.63)" d="M60.57,6.9A1.88,1.88 0,1,1 64.33,6.9A1.88,1.88 0,1,1 60.57,6.9"></path>
        <path class="cls-6 rJVhHYoO_81" transform="translate(19.62 61.21) rotate(-54.63)" d="M67.19,11.61A1.88,1.88 0,1,1 70.94999999999999,11.61A1.88,1.88 0,1,1 67.19,11.61"></path>
        <path class="cls-6 rJVhHYoO_82" transform="translate(12.59 56.47) rotate(-54.63)" d="M59.08,16.05A1.88,1.88 0,1,1 62.84,16.05A1.88,1.88 0,1,1 59.08,16.05"></path>
        <path class="cls-7 rJVhHYoO_83" d="M62.45,6.9L60.78,16.3"></path>
        <path class="cls-7 rJVhHYoO_84" d="M69.07,11.61L60.78,16.3"></path>
        <path class="cls-6 rJVhHYoO_85" transform="translate(-4.09 10.92) rotate(-37.1)" d="M12.36,11.55A1.87,1.87 0,1,1 16.1,11.55A1.87,1.87 0,1,1 12.36,11.55"></path>
        <path class="cls-6 rJVhHYoO_86" transform="translate(0.18 13.84) rotate(-37.1)" d="M18.84,6.65A1.87,1.87 0,1,1 22.580000000000002,6.65A1.87,1.87 0,1,1 18.84,6.65"></path>
        <path class="cls-6 rJVhHYoO_87" transform="translate(-4.93 16.75) rotate(-37.1)" d="M20.62,15.72A1.88,1.88 0,1,1 24.38,15.72A1.88,1.88 0,1,1 20.62,15.72"></path>
        <path class="cls-7 rJVhHYoO_88" d="M14.23,11.55L22.68,15.97"></path>
        <path class="cls-7 rJVhHYoO_89" d="M20.71,6.65L22.68,15.97"></path>
        <path class="cls-6 rJVhHYoO_90" d="M44.93,82.29A1.88,1.88 0,1,1 48.690000000000005,82.29A1.88,1.88 0,1,1 44.93,82.29"></path>
        <path class="cls-6 rJVhHYoO_91" d="M36.809999999999995,82.29A1.88,1.88 0,1,1 40.57,82.29A1.88,1.88 0,1,1 36.809999999999995,82.29"></path>
        <path class="cls-6 rJVhHYoO_92" d="M40.849999999999994,73.98A1.88,1.88 0,1,1 44.61,73.98A1.88,1.88 0,1,1 40.849999999999994,73.98"></path>
        <path class="cls-7 rJVhHYoO_93" d="M46.81,82.29L42.73,73.67"></path>
        <path class="cls-7 rJVhHYoO_94" d="M38.69,82.29L42.73,73.67"></path>
        <path class="cls-6 rJVhHYoO_95" transform="translate(-53.45 50.02) rotate(-54.53)" d="M19.92,76.87A1.88,1.88 0,1,1 23.68,76.87A1.88,1.88 0,1,1 19.92,76.87"></path>
        <path class="cls-6 rJVhHYoO_96" transform="translate(-52.39 42.65) rotate(-54.53)" d="M13.3,72.15A1.88,1.88 0,1,1 17.06,72.15A1.88,1.88 0,1,1 13.3,72.15"></path>
        <path class="cls-6 rJVhHYoO_97" transform="translate(-45.38 47.4) rotate(-54.53)" d="M21.43,67.73A1.87,1.87 0,1,1 25.17,67.73A1.87,1.87 0,1,1 21.43,67.73"></path>
        <path class="cls-7 rJVhHYoO_98" d="M21.8,76.87L23.48,67.47"></path>
        <path class="cls-7 rJVhHYoO_99" d="M15.18,72.15L23.48,67.47"></path>
        <path class="cls-6 rJVhHYoO_100" transform="translate(-29.26 58.52) rotate(-38.17)" d="M68.05000000000001,71.55A1.88,1.88 0,1,1 71.81,71.55A1.88,1.88 0,1,1 68.05000000000001,71.55"></path>
        <path class="cls-6 rJVhHYoO_101" transform="translate(-33.73 55.64) rotate(-38.17)" d="M61.67,76.57A1.87,1.87 0,1,1 65.41,76.57A1.87,1.87 0,1,1 61.67,76.57"></path>
        <path class="cls-6 rJVhHYoO_102" transform="translate(-28.57 52.5) rotate(-38.17)" d="M59.699999999999996,67.53A1.88,1.88 0,1,1 63.46,67.53A1.88,1.88 0,1,1 59.699999999999996,67.53"></path>
        <path class="cls-7 rJVhHYoO_103" d="M69.93,71.55L61.39,67.29"></path>
        <path class="cls-7 rJVhHYoO_104" d="M63.54,76.57L61.39,67.29"></path>
        <path class="cls-6 rJVhHYoO_105" transform="translate(-17.15 3.99) rotate(-17.34)" d="M2.62,58.22A1.87,1.87 0,1,1 6.36,58.22A1.87,1.87 0,1,1 2.62,58.22"></path>
        <path class="cls-6 rJVhHYoO_106" transform="translate(-14.95 2.91) rotate(-17.34)" d="M0.19999999999999973,50.46A1.87,1.87 0,1,1 3.94,50.46A1.87,1.87 0,1,1 0.19999999999999973,50.46"></path>
        <path class="cls-6 rJVhHYoO_107" transform="translate(-14.95 5.7) rotate(-17.34)" d="M9.34,51.85A1.87,1.87 0,1,1 13.080000000000002,51.85A1.87,1.87 0,1,1 9.34,51.85"></path>
        <path class="cls-7 rJVhHYoO_108" d="M4.49,58.22L11.51,51.75"></path>
        <path class="cls-7 rJVhHYoO_109" d="M2.07,50.46L11.51,51.75"></path>
        <path class="cls-6 rJVhHYoO_110" transform="matrix(0.28, -0.96, 0.96, 0.28, -29.48, 25.42)" d="M0.4299999999999997,32.47A1.87,1.87 0,1,1 4.17,32.47A1.87,1.87 0,1,1 0.4299999999999997,32.47"></path>
        <path class="cls-6 rJVhHYoO_111" transform="translate(-20.85 22.67) rotate(-73.45)" d="M2.8999999999999995,25.3A1.87,1.87 0,1,1 6.64,25.3A1.87,1.87 0,1,1 2.8999999999999995,25.3"></path>
        <path class="cls-6 rJVhHYoO_112" transform="matrix(0.28, -0.96, 0.96, 0.28, -22.26, 34.1)" d="M9.850000000000001,31.97A1.87,1.87 0,1,1 13.59,31.97A1.87,1.87 0,1,1 9.850000000000001,31.97"></path>
        <path class="cls-7 rJVhHYoO_113" d="M2,32.51L11.72,31.96"></path>
        <path class="cls-7 rJVhHYoO_114" d="M4.77,25.3L11.88,31.64"></path>
        <path class="cls-6 rJVhHYoO_115" transform="matrix(0.96, -0.27, 0.27, 0.96, -3.99, 22.49)" d="M78.14,25.79A1.88,1.88 0,1,1 81.89999999999999,25.79A1.88,1.88 0,1,1 78.14,25.79"></path>
        <path class="cls-6 rJVhHYoO_116" transform="translate(-6.01 23.37) rotate(-15.62)" d="M80.33,33.62A1.88,1.88 0,1,1 84.08999999999999,33.62A1.88,1.88 0,1,1 80.33,33.62"></path>
        <path class="cls-6 rJVhHYoO_117" transform="translate(-5.9 20.86) rotate(-15.62)" d="M71.24,31.96A1.87,1.87 0,1,1 74.98,31.96A1.87,1.87 0,1,1 71.24,31.96"></path>
        <path class="cls-7 rJVhHYoO_118" d="M80.02,25.79L72.81,32.04"></path>
        <path class="cls-7 rJVhHYoO_119" d="M82.21,33.62L72.81,32.04"></path>
        <path class="cls-6 rJVhHYoO_120" transform="translate(4.13 107.95) rotate(-68.34)" d="M79.71,50.94A1.87,1.87 0,1,1 83.45,50.94A1.87,1.87 0,1,1 79.71,50.94"></path>
        <path class="cls-6 rJVhHYoO_121" transform="translate(-4.78 109.93) rotate(-68.34)" d="M76.7,58.49A1.88,1.88 0,1,1 80.46,58.49A1.88,1.88 0,1,1 76.7,58.49"></path>
        <path class="cls-6 rJVhHYoO_122" transform="translate(-2.37 99.83) rotate(-68.34)" d="M70.47,51.66A1.88,1.88 0,1,1 74.22999999999999,51.66A1.88,1.88 0,1,1 70.47,51.66"></path>
        <path class="cls-7 rJVhHYoO_123" d="M81.58,50.94L72.06,51.54"></path>
        <path class="cls-7 rJVhHYoO_124" d="M78.58,58.49L72.06,51.54"></path>
    </g>
<style data-made-with="vivus-instant">.rJVhHYoO_0{stroke-dasharray:13 15;stroke-dashoffset:14;animation:rJVhHYoO_draw 2000ms ease-in-out 0ms forwards;}.rJVhHYoO_1{stroke-dasharray:13 15;stroke-dashoffset:14;animation:rJVhHYoO_draw 2000ms ease-in-out 8ms forwards;}.rJVhHYoO_2{stroke-dasharray:14 16;stroke-dashoffset:15;animation:rJVhHYoO_draw 2000ms ease-in-out 16ms forwards;}.rJVhHYoO_3{stroke-dasharray:14 16;stroke-dashoffset:15;animation:rJVhHYoO_draw 2000ms ease-in-out 24ms forwards;}.rJVhHYoO_4{stroke-dasharray:14 16;stroke-dashoffset:15;animation:rJVhHYoO_draw 2000ms ease-in-out 32ms forwards;}.rJVhHYoO_5{stroke-dasharray:13 15;stroke-dashoffset:14;animation:rJVhHYoO_draw 2000ms ease-in-out 40ms forwards;}.rJVhHYoO_6{stroke-dasharray:13 15;stroke-dashoffset:14;animation:rJVhHYoO_draw 2000ms ease-in-out 48ms forwards;}.rJVhHYoO_7{stroke-dasharray:14 16;stroke-dashoffset:15;animation:rJVhHYoO_draw 2000ms ease-in-out 56ms forwards;}.rJVhHYoO_8{stroke-dasharray:14 16;stroke-dashoffset:15;animation:rJVhHYoO_draw 2000ms ease-in-out 64ms forwards;}.rJVhHYoO_9{stroke-dasharray:14 16;stroke-dashoffset:15;animation:rJVhHYoO_draw 2000ms ease-in-out 72ms forwards;}.rJVhHYoO_10{stroke-dasharray:13 15;stroke-dashoffset:14;animation:rJVhHYoO_draw 2000ms ease-in-out 80ms forwards;}.rJVhHYoO_11{stroke-dasharray:13 15;stroke-dashoffset:14;animation:rJVhHYoO_draw 2000ms ease-in-out 88ms forwards;}.rJVhHYoO_12{stroke-dasharray:14 16;stroke-dashoffset:15;animation:rJVhHYoO_draw 2000ms ease-in-out 96ms forwards;}.rJVhHYoO_13{stroke-dasharray:14 16;stroke-dashoffset:15;animation:rJVhHYoO_draw 2000ms ease-in-out 104ms forwards;}.rJVhHYoO_14{stroke-dasharray:14 16;stroke-dashoffset:15;animation:rJVhHYoO_draw 2000ms ease-in-out 112ms forwards;}.rJVhHYoO_15{stroke-dasharray:15 17;stroke-dashoffset:16;animation:rJVhHYoO_draw 2000ms ease-in-out 120ms forwards;}.rJVhHYoO_16{stroke-dasharray:15 17;stroke-dashoffset:16;animation:rJVhHYoO_draw 2000ms ease-in-out 129ms forwards;}.rJVhHYoO_17{stroke-dasharray:14 16;stroke-dashoffset:15;animation:rJVhHYoO_draw 2000ms ease-in-out 137ms forwards;}.rJVhHYoO_18{stroke-dasharray:14 16;stroke-dashoffset:15;animation:rJVhHYoO_draw 2000ms ease-in-out 145ms forwards;}.rJVhHYoO_19{stroke-dasharray:14 16;stroke-dashoffset:15;animation:rJVhHYoO_draw 2000ms ease-in-out 153ms forwards;}.rJVhHYoO_20{stroke-dasharray:15 17;stroke-dashoffset:16;animation:rJVhHYoO_draw 2000ms ease-in-out 161ms forwards;}.rJVhHYoO_21{stroke-dasharray:15 17;stroke-dashoffset:16;animation:rJVhHYoO_draw 2000ms ease-in-out 169ms forwards;}.rJVhHYoO_22{stroke-dasharray:14 16;stroke-dashoffset:15;animation:rJVhHYoO_draw 2000ms ease-in-out 177ms forwards;}.rJVhHYoO_23{stroke-dasharray:14 16;stroke-dashoffset:15;animation:rJVhHYoO_draw 2000ms ease-in-out 185ms forwards;}.rJVhHYoO_24{stroke-dasharray:14 16;stroke-dashoffset:15;animation:rJVhHYoO_draw 2000ms ease-in-out 193ms forwards;}.rJVhHYoO_25{stroke-dasharray:13 15;stroke-dashoffset:14;animation:rJVhHYoO_draw 2000ms ease-in-out 201ms forwards;}.rJVhHYoO_26{stroke-dasharray:13 15;stroke-dashoffset:14;animation:rJVhHYoO_draw 2000ms ease-in-out 209ms forwards;}.rJVhHYoO_27{stroke-dasharray:14 16;stroke-dashoffset:15;animation:rJVhHYoO_draw 2000ms ease-in-out 217ms forwards;}.rJVhHYoO_28{stroke-dasharray:14 16;stroke-dashoffset:15;animation:rJVhHYoO_draw 2000ms ease-in-out 225ms forwards;}.rJVhHYoO_29{stroke-dasharray:14 16;stroke-dashoffset:15;animation:rJVhHYoO_draw 2000ms ease-in-out 233ms forwards;}.rJVhHYoO_30{stroke-dasharray:13 15;stroke-dashoffset:14;animation:rJVhHYoO_draw 2000ms ease-in-out 241ms forwards;}.rJVhHYoO_31{stroke-dasharray:13 15;stroke-dashoffset:14;animation:rJVhHYoO_draw 2000ms ease-in-out 250ms forwards;}.rJVhHYoO_32{stroke-dasharray:14 16;stroke-dashoffset:15;animation:rJVhHYoO_draw 2000ms ease-in-out 258ms forwards;}.rJVhHYoO_33{stroke-dasharray:14 16;stroke-dashoffset:15;animation:rJVhHYoO_draw 2000ms ease-in-out 266ms forwards;}.rJVhHYoO_34{stroke-dasharray:14 16;stroke-dashoffset:15;animation:rJVhHYoO_draw 2000ms ease-in-out 274ms forwards;}.rJVhHYoO_35{stroke-dasharray:13 15;stroke-dashoffset:14;animation:rJVhHYoO_draw 2000ms ease-in-out 282ms forwards;}.rJVhHYoO_36{stroke-dasharray:13 15;stroke-dashoffset:14;animation:rJVhHYoO_draw 2000ms ease-in-out 290ms forwards;}.rJVhHYoO_37{stroke-dasharray:14 16;stroke-dashoffset:15;animation:rJVhHYoO_draw 2000ms ease-in-out 298ms forwards;}.rJVhHYoO_38{stroke-dasharray:14 16;stroke-dashoffset:15;animation:rJVhHYoO_draw 2000ms ease-in-out 306ms forwards;}.rJVhHYoO_39{stroke-dasharray:14 16;stroke-dashoffset:15;animation:rJVhHYoO_draw 2000ms ease-in-out 314ms forwards;}.rJVhHYoO_40{stroke-dasharray:13 15;stroke-dashoffset:14;animation:rJVhHYoO_draw 2000ms ease-in-out 322ms forwards;}.rJVhHYoO_41{stroke-dasharray:13 15;stroke-dashoffset:14;animation:rJVhHYoO_draw 2000ms ease-in-out 330ms forwards;}.rJVhHYoO_42{stroke-dasharray:14 16;stroke-dashoffset:15;animation:rJVhHYoO_draw 2000ms ease-in-out 338ms forwards;}.rJVhHYoO_43{stroke-dasharray:14 16;stroke-dashoffset:15;animation:rJVhHYoO_draw 2000ms ease-in-out 346ms forwards;}.rJVhHYoO_44{stroke-dasharray:14 16;stroke-dashoffset:15;animation:rJVhHYoO_draw 2000ms ease-in-out 354ms forwards;}.rJVhHYoO_45{stroke-dasharray:13 15;stroke-dashoffset:14;animation:rJVhHYoO_draw 2000ms ease-in-out 362ms forwards;}.rJVhHYoO_46{stroke-dasharray:13 15;stroke-dashoffset:14;animation:rJVhHYoO_draw 2000ms ease-in-out 370ms forwards;}.rJVhHYoO_47{stroke-dasharray:14 16;stroke-dashoffset:15;animation:rJVhHYoO_draw 2000ms ease-in-out 379ms forwards;}.rJVhHYoO_48{stroke-dasharray:14 16;stroke-dashoffset:15;animation:rJVhHYoO_draw 2000ms ease-in-out 387ms forwards;}.rJVhHYoO_49{stroke-dasharray:14 16;stroke-dashoffset:15;animation:rJVhHYoO_draw 2000ms ease-in-out 395ms forwards;}.rJVhHYoO_50{stroke-dasharray:13 15;stroke-dashoffset:14;animation:rJVhHYoO_draw 2000ms ease-in-out 403ms forwards;}.rJVhHYoO_51{stroke-dasharray:13 15;stroke-dashoffset:14;animation:rJVhHYoO_draw 2000ms ease-in-out 411ms forwards;}.rJVhHYoO_52{stroke-dasharray:14 16;stroke-dashoffset:15;animation:rJVhHYoO_draw 2000ms ease-in-out 419ms forwards;}.rJVhHYoO_53{stroke-dasharray:14 16;stroke-dashoffset:15;animation:rJVhHYoO_draw 2000ms ease-in-out 427ms forwards;}.rJVhHYoO_54{stroke-dasharray:14 16;stroke-dashoffset:15;animation:rJVhHYoO_draw 2000ms ease-in-out 435ms forwards;}.rJVhHYoO_55{stroke-dasharray:13 15;stroke-dashoffset:14;animation:rJVhHYoO_draw 2000ms ease-in-out 443ms forwards;}.rJVhHYoO_56{stroke-dasharray:13 15;stroke-dashoffset:14;animation:rJVhHYoO_draw 2000ms ease-in-out 451ms forwards;}.rJVhHYoO_57{stroke-dasharray:14 16;stroke-dashoffset:15;animation:rJVhHYoO_draw 2000ms ease-in-out 459ms forwards;}.rJVhHYoO_58{stroke-dasharray:14 16;stroke-dashoffset:15;animation:rJVhHYoO_draw 2000ms ease-in-out 467ms forwards;}.rJVhHYoO_59{stroke-dasharray:14 16;stroke-dashoffset:15;animation:rJVhHYoO_draw 2000ms ease-in-out 475ms forwards;}.rJVhHYoO_60{stroke-dasharray:13 15;stroke-dashoffset:14;animation:rJVhHYoO_draw 2000ms ease-in-out 483ms forwards;}.rJVhHYoO_61{stroke-dasharray:13 15;stroke-dashoffset:14;animation:rJVhHYoO_draw 2000ms ease-in-out 491ms forwards;}.rJVhHYoO_62{stroke-dasharray:14 16;stroke-dashoffset:15;animation:rJVhHYoO_draw 2000ms ease-in-out 500ms forwards;}.rJVhHYoO_63{stroke-dasharray:14 16;stroke-dashoffset:15;animation:rJVhHYoO_draw 2000ms ease-in-out 508ms forwards;}.rJVhHYoO_64{stroke-dasharray:14 16;stroke-dashoffset:15;animation:rJVhHYoO_draw 2000ms ease-in-out 516ms forwards;}.rJVhHYoO_65{stroke-dasharray:13 15;stroke-dashoffset:14;animation:rJVhHYoO_draw 2000ms ease-in-out 524ms forwards;}.rJVhHYoO_66{stroke-dasharray:13 15;stroke-dashoffset:14;animation:rJVhHYoO_draw 2000ms ease-in-out 532ms forwards;}.rJVhHYoO_67{stroke-dasharray:14 16;stroke-dashoffset:15;animation:rJVhHYoO_draw 2000ms ease-in-out 540ms forwards;}.rJVhHYoO_68{stroke-dasharray:14 16;stroke-dashoffset:15;animation:rJVhHYoO_draw 2000ms ease-in-out 548ms forwards;}.rJVhHYoO_69{stroke-dasharray:14 16;stroke-dashoffset:15;animation:rJVhHYoO_draw 2000ms ease-in-out 556ms forwards;}.rJVhHYoO_70{stroke-dasharray:13 15;stroke-dashoffset:14;animation:rJVhHYoO_draw 2000ms ease-in-out 564ms forwards;}.rJVhHYoO_71{stroke-dasharray:13 15;stroke-dashoffset:14;animation:rJVhHYoO_draw 2000ms ease-in-out 572ms forwards;}.rJVhHYoO_72{stroke-dasharray:14 16;stroke-dashoffset:15;animation:rJVhHYoO_draw 2000ms ease-in-out 580ms forwards;}.rJVhHYoO_73{stroke-dasharray:14 16;stroke-dashoffset:15;animation:rJVhHYoO_draw 2000ms ease-in-out 588ms forwards;}.rJVhHYoO_74{stroke-dasharray:14 16;stroke-dashoffset:15;animation:rJVhHYoO_draw 2000ms ease-in-out 596ms forwards;}.rJVhHYoO_75{stroke-dasharray:12 14;stroke-dashoffset:13;animation:rJVhHYoO_draw 2000ms ease-in-out 604ms forwards;}.rJVhHYoO_76{stroke-dasharray:12 14;stroke-dashoffset:13;animation:rJVhHYoO_draw 2000ms ease-in-out 612ms forwards;}.rJVhHYoO_77{stroke-dasharray:12 14;stroke-dashoffset:13;animation:rJVhHYoO_draw 2000ms ease-in-out 620ms forwards;}.rJVhHYoO_78{stroke-dasharray:10 12;stroke-dashoffset:11;animation:rJVhHYoO_draw 2000ms ease-in-out 629ms forwards;}.rJVhHYoO_79{stroke-dasharray:10 12;stroke-dashoffset:11;animation:rJVhHYoO_draw 2000ms ease-in-out 637ms forwards;}.rJVhHYoO_80{stroke-dasharray:12 14;stroke-dashoffset:13;animation:rJVhHYoO_draw 2000ms ease-in-out 645ms forwards;}.rJVhHYoO_81{stroke-dasharray:12 14;stroke-dashoffset:13;animation:rJVhHYoO_draw 2000ms ease-in-out 653ms forwards;}.rJVhHYoO_82{stroke-dasharray:12 14;stroke-dashoffset:13;animation:rJVhHYoO_draw 2000ms ease-in-out 661ms forwards;}.rJVhHYoO_83{stroke-dasharray:10 12;stroke-dashoffset:11;animation:rJVhHYoO_draw 2000ms ease-in-out 669ms forwards;}.rJVhHYoO_84{stroke-dasharray:10 12;stroke-dashoffset:11;animation:rJVhHYoO_draw 2000ms ease-in-out 677ms forwards;}.rJVhHYoO_85{stroke-dasharray:12 14;stroke-dashoffset:13;animation:rJVhHYoO_draw 2000ms ease-in-out 685ms forwards;}.rJVhHYoO_86{stroke-dasharray:12 14;stroke-dashoffset:13;animation:rJVhHYoO_draw 2000ms ease-in-out 693ms forwards;}.rJVhHYoO_87{stroke-dasharray:12 14;stroke-dashoffset:13;animation:rJVhHYoO_draw 2000ms ease-in-out 701ms forwards;}.rJVhHYoO_88{stroke-dasharray:10 12;stroke-dashoffset:11;animation:rJVhHYoO_draw 2000ms ease-in-out 709ms forwards;}.rJVhHYoO_89{stroke-dasharray:10 12;stroke-dashoffset:11;animation:rJVhHYoO_draw 2000ms ease-in-out 717ms forwards;}.rJVhHYoO_90{stroke-dasharray:12 14;stroke-dashoffset:13;animation:rJVhHYoO_draw 2000ms ease-in-out 725ms forwards;}.rJVhHYoO_91{stroke-dasharray:12 14;stroke-dashoffset:13;animation:rJVhHYoO_draw 2000ms ease-in-out 733ms forwards;}.rJVhHYoO_92{stroke-dasharray:12 14;stroke-dashoffset:13;animation:rJVhHYoO_draw 2000ms ease-in-out 741ms forwards;}.rJVhHYoO_93{stroke-dasharray:10 12;stroke-dashoffset:11;animation:rJVhHYoO_draw 2000ms ease-in-out 750ms forwards;}.rJVhHYoO_94{stroke-dasharray:10 12;stroke-dashoffset:11;animation:rJVhHYoO_draw 2000ms ease-in-out 758ms forwards;}.rJVhHYoO_95{stroke-dasharray:12 14;stroke-dashoffset:13;animation:rJVhHYoO_draw 2000ms ease-in-out 766ms forwards;}.rJVhHYoO_96{stroke-dasharray:12 14;stroke-dashoffset:13;animation:rJVhHYoO_draw 2000ms ease-in-out 774ms forwards;}.rJVhHYoO_97{stroke-dasharray:12 14;stroke-dashoffset:13;animation:rJVhHYoO_draw 2000ms ease-in-out 782ms forwards;}.rJVhHYoO_98{stroke-dasharray:10 12;stroke-dashoffset:11;animation:rJVhHYoO_draw 2000ms ease-in-out 790ms forwards;}.rJVhHYoO_99{stroke-dasharray:10 12;stroke-dashoffset:11;animation:rJVhHYoO_draw 2000ms ease-in-out 798ms forwards;}.rJVhHYoO_100{stroke-dasharray:12 14;stroke-dashoffset:13;animation:rJVhHYoO_draw 2000ms ease-in-out 806ms forwards;}.rJVhHYoO_101{stroke-dasharray:12 14;stroke-dashoffset:13;animation:rJVhHYoO_draw 2000ms ease-in-out 814ms forwards;}.rJVhHYoO_102{stroke-dasharray:12 14;stroke-dashoffset:13;animation:rJVhHYoO_draw 2000ms ease-in-out 822ms forwards;}.rJVhHYoO_103{stroke-dasharray:10 12;stroke-dashoffset:11;animation:rJVhHYoO_draw 2000ms ease-in-out 830ms forwards;}.rJVhHYoO_104{stroke-dasharray:10 12;stroke-dashoffset:11;animation:rJVhHYoO_draw 2000ms ease-in-out 838ms forwards;}.rJVhHYoO_105{stroke-dasharray:12 14;stroke-dashoffset:13;animation:rJVhHYoO_draw 2000ms ease-in-out 846ms forwards;}.rJVhHYoO_106{stroke-dasharray:12 14;stroke-dashoffset:13;animation:rJVhHYoO_draw 2000ms ease-in-out 854ms forwards;}.rJVhHYoO_107{stroke-dasharray:12 14;stroke-dashoffset:13;animation:rJVhHYoO_draw 2000ms ease-in-out 862ms forwards;}.rJVhHYoO_108{stroke-dasharray:10 12;stroke-dashoffset:11;animation:rJVhHYoO_draw 2000ms ease-in-out 870ms forwards;}.rJVhHYoO_109{stroke-dasharray:10 12;stroke-dashoffset:11;animation:rJVhHYoO_draw 2000ms ease-in-out 879ms forwards;}.rJVhHYoO_110{stroke-dasharray:12 14;stroke-dashoffset:13;animation:rJVhHYoO_draw 2000ms ease-in-out 887ms forwards;}.rJVhHYoO_111{stroke-dasharray:12 14;stroke-dashoffset:13;animation:rJVhHYoO_draw 2000ms ease-in-out 895ms forwards;}.rJVhHYoO_112{stroke-dasharray:12 14;stroke-dashoffset:13;animation:rJVhHYoO_draw 2000ms ease-in-out 903ms forwards;}.rJVhHYoO_113{stroke-dasharray:10 12;stroke-dashoffset:11;animation:rJVhHYoO_draw 2000ms ease-in-out 911ms forwards;}.rJVhHYoO_114{stroke-dasharray:10 12;stroke-dashoffset:11;animation:rJVhHYoO_draw 2000ms ease-in-out 919ms forwards;}.rJVhHYoO_115{stroke-dasharray:12 14;stroke-dashoffset:13;animation:rJVhHYoO_draw 2000ms ease-in-out 927ms forwards;}.rJVhHYoO_116{stroke-dasharray:12 14;stroke-dashoffset:13;animation:rJVhHYoO_draw 2000ms ease-in-out 935ms forwards;}.rJVhHYoO_117{stroke-dasharray:12 14;stroke-dashoffset:13;animation:rJVhHYoO_draw 2000ms ease-in-out 943ms forwards;}.rJVhHYoO_118{stroke-dasharray:10 12;stroke-dashoffset:11;animation:rJVhHYoO_draw 2000ms ease-in-out 951ms forwards;}.rJVhHYoO_119{stroke-dasharray:10 12;stroke-dashoffset:11;animation:rJVhHYoO_draw 2000ms ease-in-out 959ms forwards;}.rJVhHYoO_120{stroke-dasharray:12 14;stroke-dashoffset:13;animation:rJVhHYoO_draw 2000ms ease-in-out 967ms forwards;}.rJVhHYoO_121{stroke-dasharray:12 14;stroke-dashoffset:13;animation:rJVhHYoO_draw 2000ms ease-in-out 975ms forwards;}.rJVhHYoO_122{stroke-dasharray:12 14;stroke-dashoffset:13;animation:rJVhHYoO_draw 2000ms ease-in-out 983ms forwards;}.rJVhHYoO_123{stroke-dasharray:10 12;stroke-dashoffset:11;animation:rJVhHYoO_draw 2000ms ease-in-out 991ms forwards;}.rJVhHYoO_124{stroke-dasharray:10 12;stroke-dashoffset:11;animation:rJVhHYoO_draw 2000ms ease-in-out 1000ms forwards;}@keyframes rJVhHYoO_draw{100%{stroke-dashoffset:0;}}@keyframes rJVhHYoO_fade{0%{stroke-opacity:1;}94.44444444444444%{stroke-opacity:1;}100%{stroke-opacity:0;}}</style></svg>